<?xml version="1.0" encoding="utf-8"?>
<!-- Generator: Adobe Illustrator 16.0.0, SVG Export Plug-In . SVG Version: 6.00 Build 0)  -->
<!DOCTYPE svg PUBLIC "-//W3C//DTD SVG 1.1//EN" "http://www.w3.org/Graphics/SVG/1.1/DTD/svg11.dtd">
<svg version="1.1" id="Layer_1" xmlns="http://www.w3.org/2000/svg" xmlns:xlink="http://www.w3.org/1999/xlink" x="0px" y="0px"
	 width="120px" height="70px" viewBox="0 2.5 120 70" enable-background="new 0 2.5 120 70" xml:space="preserve">
<g>
	<path fill="#DDDDDD" d="M67.311,72.502c2.34,0,4.379-2.051,4.379-4.391V57.882h2.92c1.76,0,2.93-1.17,2.93-2.92v-29.23h-35.08
		v29.23c0,1.75,1.17,2.92,2.93,2.92h2.921v10.229c0,2.351,2.04,4.391,4.38,4.391s4.39-2.04,4.39-4.391V57.882h5.85v10.229
		C62.93,70.451,64.969,72.502,67.311,72.502z"/>
	<path fill="#DDDDDD" d="M84.85,54.962c2.34,0,4.381-2.04,4.381-4.391v-20.46c0-2.33-2.041-4.38-4.381-4.38s-4.381,2.05-4.381,4.38
		v20.46C80.469,52.922,82.51,54.962,84.85,54.962z"/>
	<path fill="#DDDDDD" d="M35.15,54.962c2.34,0,4.39-2.04,4.39-4.391v-20.46c0-2.33-2.05-4.38-4.39-4.38s-4.38,2.05-4.38,4.38v20.46
		C30.77,52.922,32.81,54.962,35.15,54.962z"/>
	<path fill-rule="evenodd" clip-rule="evenodd" fill="#DDDDDD" d="M67.311,17.691c-1.211,0-2.191-0.98-2.191-2.19
		s0.98-2.19,2.191-2.19c1.209,0,2.199,0.98,2.199,2.19S68.52,17.691,67.311,17.691z M52.69,17.691c-1.21,0-2.189-0.98-2.189-2.19
		s0.979-2.19,2.189-2.19s2.189,0.98,2.189,2.19S53.9,17.691,52.69,17.691z M74.029,2.941c-0.59-0.59-1.459-0.59-2.039,0l-3.92,3.91
		l-0.191,0.18c-2.318-1.17-4.93-1.75-7.839-1.75H60h-0.041c-2.91,0-5.52,0.58-7.84,1.75l-0.18-0.18l-3.93-3.91
		c-0.58-0.59-1.45-0.59-2.041,0c-0.58,0.58-0.58,1.45,0,2.04l3.801,3.79c-1.23,0.82-2.33,1.82-3.301,2.96
		c-2.31,2.74-3.779,6.3-3.979,10.16l-0.01,0.12c-0.011,0.26-0.021,0.53-0.021,0.79h35.08c0-0.26-0.01-0.53-0.02-0.79l-0.01-0.12
		c-0.199-3.86-1.67-7.42-3.98-10.16c-0.959-1.14-2.07-2.14-3.299-2.96l3.799-3.79C74.609,4.391,74.609,3.521,74.029,2.941z"/>
</g>
</svg>
