<?xml version="1.0" encoding="utf-8"?>
<!-- Generator: Adobe Illustrator 16.0.0, SVG Export Plug-In . SVG Version: 6.00 Build 0)  -->
<!DOCTYPE svg PUBLIC "-//W3C//DTD SVG 1.1//EN" "http://www.w3.org/Graphics/SVG/1.1/DTD/svg11.dtd">
<svg version="1.1" id="Layer_1" xmlns="http://www.w3.org/2000/svg" xmlns:xlink="http://www.w3.org/1999/xlink" x="0px" y="0px"
	 width="120px" height="70px" viewBox="0 2.5 120 70" enable-background="new 0 2.5 120 70" xml:space="preserve">
<g>
	<path fill="#DDDDDD" d="M34.351,28.23c-5.92,10.27-2.16,25.85,4.39,35.3c3.271,4.729,6.57,8.97,11.101,8.97l0.26-0.01
		c2.13-0.08,3.67-0.74,5.15-1.37c1.67-0.71,3.399-1.45,6.11-1.45c2.58,0,4.219,0.71,5.811,1.4c1.568,0.68,3.18,1.38,5.559,1.34
		c5.111-0.1,8.24-4.67,11-8.71c2.891-4.21,4.34-8.31,4.82-9.87l0.02-0.06c0.102-0.28-0.039-0.58-0.299-0.71L88.23,53.04
		c-0.9-0.359-8.779-3.859-8.869-13.39c-0.07-7.74,5.92-11.84,7.119-12.59l0.051-0.03c0.129-0.08,0.221-0.22,0.25-0.37
		c0.039-0.15,0-0.31-0.08-0.44c-4.141-6.05-10.471-6.96-13.029-7.07c-0.371-0.03-0.75-0.05-1.131-0.05c-3,0-5.869,1.13-8.18,2.04
		c-1.59,0.63-2.961,1.17-3.911,1.17c-1.07,0-2.449-0.55-4.05-1.19c-2.14-0.85-4.57-1.81-7.14-1.81h-0.181
		C43.111,19.4,37.46,22.82,34.351,28.23z"/>
	<path fill="#DDDDDD" d="M73.682,2.5c-3.621,0.15-7.961,2.37-10.551,5.41c-2.209,2.56-4.36,6.81-3.79,11.11
		c0.029,0.26,0.25,0.47,0.52,0.49c0.25,0.02,0.5,0.03,0.741,0.03c3.539,0,7.359-1.96,9.959-5.11c2.75-3.33,4.131-7.6,3.711-11.42
		C74.24,2.71,73.98,2.49,73.682,2.5z"/>
</g>
</svg>
