<?xml version="1.0" encoding="utf-8"?>
<!-- Generator: Adobe Illustrator 16.0.0, SVG Export Plug-In . SVG Version: 6.00 Build 0)  -->
<!DOCTYPE svg PUBLIC "-//W3C//DTD SVG 1.1//EN" "http://www.w3.org/Graphics/SVG/1.1/DTD/svg11.dtd">
<svg version="1.1" id="Layer_1" xmlns="http://www.w3.org/2000/svg" xmlns:xlink="http://www.w3.org/1999/xlink" x="0px" y="0px"
	 width="120px" height="70px" viewBox="0 2.5 120 70" enable-background="new 0 2.5 120 70" xml:space="preserve">
<g>
	<path fill-rule="evenodd" clip-rule="evenodd" fill="#DDDDDD" d="M101.42,67.62h-27.9l-2.721-8.71
		c-0.318-1.02-1.26-1.71-2.328-1.71H51.54c-1.069,0-2.011,0.69-2.33,1.71l-2.72,8.71H18.58c-0.26,0-0.42-0.25-0.359-0.46l8.389-18.1
		H93.4l8.379,18.1C101.84,67.37,101.68,67.62,101.42,67.62z M51.599,67.62l1.73-5.54h13.34l1.73,5.54H51.599z M27.49,7.38h65.02
		v36.79H27.49V7.38z M106.32,65.34c-0.01,0-0.01,0-0.01,0c0.01-0.02,0-0.029-8.91-19.26V7.38c0-2.69-2.191-4.88-4.891-4.88H27.49
		c-2.69,0-4.881,2.19-4.881,4.88v38.7L13.74,65.2c-0.66,1.42-0.58,3.43,0.5,5.01c0.98,1.431,2.6,2.29,4.34,2.29h82.84
		C105.109,72.5,107.66,68.79,106.32,65.34z"/>
</g>
</svg>
