<?xml version="1.0" encoding="utf-8"?>
<!-- Generator: Adobe Illustrator 16.0.0, SVG Export Plug-In . SVG Version: 6.00 Build 0)  -->
<!DOCTYPE svg PUBLIC "-//W3C//DTD SVG 1.1//EN" "http://www.w3.org/Graphics/SVG/1.1/DTD/svg11.dtd">
<svg version="1.1" id="Layer_1" xmlns="http://www.w3.org/2000/svg" xmlns:xlink="http://www.w3.org/1999/xlink" x="0px" y="0px"
	 width="120px" height="70px" viewBox="0 2.5 120 70" enable-background="new 0 2.5 120 70" xml:space="preserve">
<g>
	<path fill-rule="evenodd" clip-rule="evenodd" fill="#DDDDDD" d="M107.385,55.67h-94.76V8.27h94.76V55.67z M64.405,66.73h-8.811
		v-5.291h8.811V66.73z M110.265,2.5H9.734c-1.6,0-2.89,1.29-2.89,2.89v53.16c0,1.601,1.29,2.89,2.89,2.89h40.091v5.291h-7.791
		c-1.6,0-2.89,1.289-2.89,2.879c0,1.601,1.29,2.891,2.89,2.891h35.94c1.59,0,2.88-1.29,2.88-2.891c0-1.59-1.29-2.879-2.88-2.879
		h-7.79v-5.291h40.08c1.6,0,2.891-1.289,2.891-2.89V5.39C113.155,3.79,111.864,2.5,110.265,2.5z"/>
	<path fill="#DDDDDD" d="M51.694,30.21c-0.949,0.95-0.949,2.49,0,3.44c0.95,0.95,2.49,0.95,3.44,0c2.68-2.69,7.05-2.69,9.74,0
		c0.47,0.47,1.09,0.71,1.72,0.71c0.62,0,1.24-0.24,1.71-0.71c0.95-0.95,0.95-2.49,0-3.44C63.725,25.63,56.274,25.63,51.694,30.21z"
		/>
	<path fill="#DDDDDD" d="M48.885,27.39c6.13-6.13,16.11-6.13,22.24,0c0.47,0.48,1.09,0.71,1.72,0.71c0.62,0,1.24-0.23,1.72-0.71
		c0.95-0.95,0.95-2.49,0-3.44c-8.03-8.02-21.09-8.02-29.12,0c-0.949,0.95-0.949,2.49,0,3.44C46.395,28.34,47.935,28.34,48.885,27.39
		z"/>
	<circle fill="#DDDDDD" cx="60.005" cy="48.76" r="2.43"/>
	<path fill="#DDDDDD" d="M60.005,35.81c1.34,0,2.43,1.08,2.43,2.43c0,1.34-1.09,2.43-2.43,2.43s-2.43-1.09-2.43-2.43
		C57.575,36.89,58.665,35.81,60.005,35.81z"/>
</g>
</svg>
