<?xml version="1.0" encoding="utf-8"?>
<!-- Generator: Adobe Illustrator 16.0.0, SVG Export Plug-In . SVG Version: 6.00 Build 0)  -->
<!DOCTYPE svg PUBLIC "-//W3C//DTD SVG 1.1//EN" "http://www.w3.org/Graphics/SVG/1.1/DTD/svg11.dtd">
<svg version="1.1" id="Layer_1" xmlns="http://www.w3.org/2000/svg" xmlns:xlink="http://www.w3.org/1999/xlink" x="0px" y="0px"
	 width="120px" height="70px" viewBox="0 2.5 120 70" enable-background="new 0 2.5 120 70" xml:space="preserve">
<g>
	<path fill-rule="evenodd" clip-rule="evenodd" fill="#DDDDDD" d="M101.385,55.67h-82.76V8.27h82.76V55.67z M64.405,66.73h-8.811
		v-5.291h8.811V66.73z M104.265,2.5H15.735c-1.601,0-2.891,1.29-2.891,2.89v53.16c0,1.601,1.29,2.89,2.891,2.89h34.09v5.291h-5.791
		c-1.6,0-2.889,1.289-2.889,2.879c0,1.601,1.289,2.891,2.889,2.891h31.94c1.591,0,2.88-1.29,2.88-2.891
		c0-1.59-1.289-2.879-2.88-2.879h-5.79v-5.291h34.08c1.6,0,2.891-1.289,2.891-2.89V5.39C107.155,3.79,105.864,2.5,104.265,2.5z"/>
</g>
</svg>
