<?xml version="1.0" encoding="utf-8"?>
<!-- Generator: Adobe Illustrator 16.0.0, SVG Export Plug-In . SVG Version: 6.00 Build 0)  -->
<!DOCTYPE svg PUBLIC "-//W3C//DTD SVG 1.1//EN" "http://www.w3.org/Graphics/SVG/1.1/DTD/svg11.dtd">
<svg version="1.1" id="Layer_1" xmlns="http://www.w3.org/2000/svg" xmlns:xlink="http://www.w3.org/1999/xlink" x="0px" y="0px"
	 width="120px" height="75px" viewBox="0 0 120 75" enable-background="new 0 0 120 75" xml:space="preserve">
<g>
	<path fill="#FFFFFF" d="M90.82,41.741c0,1.131-0.918,2.049-2.041,2.049H31.183c-1.131,0-2.048-0.918-2.048-2.049V8.655
		c0-1.13,0.917-2.058,2.048-2.058h57.596c1.123,0,2.041,0.927,2.041,2.058V41.741z M64.073,51.93
		c-1.066,1.131-2.52,1.772-4.098,1.772c-1.575,0-3.031-0.642-4.098-1.772v-4.042h8.195V51.93z M85.221,68.403h-6.814v-3.42
		c0-1.133-0.916-2.05-2.048-2.05c-1.13,0-2.047,0.917-2.047,2.05v3.42H45.646v-3.42c0-1.133-0.917-2.05-2.049-2.05
		c-1.13,0-2.047,0.917-2.047,2.05v3.42h-6.814c0.148-5.163,3.681-9.623,8.696-10.921l9.696-2.503
		c1.809,1.808,4.237,2.828,6.851,2.828c2.615,0,5.045-1.021,6.852-2.828l9.697,2.503C81.54,58.78,85.071,63.239,85.221,68.403z
		 M88.779,2.5H31.183c-3.393,0-6.146,2.762-6.146,6.155v33.087c0,3.393,2.754,6.146,6.146,6.146h20.608v3.198l-9.381,2.428
		c-6.935,1.79-11.774,8.048-11.774,15.223v1.715c0,1.132,0.916,2.049,2.04,2.049h54.602c1.131,0,2.04-0.917,2.04-2.049v-1.715
		c0-7.175-4.839-13.433-11.773-15.223l-9.382-2.428v-3.198H88.78c3.385,0,6.138-2.754,6.138-6.146V8.655
		C94.918,5.263,92.163,2.5,88.779,2.5z"/>
	<g>
		<path fill="#FFFFFF" d="M102.287,30.505c0.398,0.409,0.926,0.611,1.455,0.611c0.521,0,1.048-0.204,1.446-0.603
			c2.411-2.411,3.736-5.617,3.736-9.028c0-3.413-1.325-6.62-3.736-9.03c-0.798-0.807-2.105-0.807-2.901,0
			c-0.807,0.807-0.807,2.114,0,2.92c1.631,1.632,2.521,3.801,2.521,6.11c0,2.308-0.891,4.477-2.521,6.109
			C101.48,28.392,101.48,29.699,102.287,30.505z"/>
		<path fill="#FFFFFF" d="M15.729,30.515c0.408,0.399,0.927,0.603,1.456,0.603s1.057-0.204,1.455-0.611
			c0.808-0.807,0.808-2.114,0-2.911c-1.631-1.632-2.53-3.802-2.53-6.109c0-2.31,0.899-4.478,2.53-6.11
			c0.808-0.807,0.808-2.114,0-2.92c-0.796-0.807-2.104-0.807-2.91,0c-2.401,2.411-3.727,5.617-3.727,9.03
			C12.002,24.897,13.328,28.104,15.729,30.515z"/>
		<path fill="#FFFFFF" d="M111.974,21.486c0,4.597-1.787,8.927-5.033,12.181c-0.806,0.807-0.806,2.114-0.009,2.92
			c0.408,0.398,0.936,0.603,1.456,0.603c0.528,0,1.057-0.194,1.455-0.603c4.032-4.034,6.248-9.401,6.248-15.101
			c0-5.711-2.216-11.07-6.248-15.112c-0.799-0.798-2.105-0.798-2.911,0.009c-0.797,0.806-0.797,2.114,0.009,2.92
			C110.187,12.557,111.974,16.878,111.974,21.486z"/>
		<path fill="#FFFFFF" d="M11.603,37.189c0.528,0,1.058-0.204,1.457-0.603c0.806-0.806,0.806-2.113,0-2.92
			c-3.253-3.253-5.043-7.583-5.043-12.181c0-4.608,1.789-8.928,5.043-12.182c0.806-0.807,0.806-2.114,0-2.921
			c-0.797-0.806-2.104-0.816-2.902-0.009c-4.033,4.043-6.249,9.401-6.249,15.113c0,5.7,2.216,11.068,6.25,15.1
			C10.556,36.994,11.085,37.189,11.603,37.189z"/>
	</g>
	<g>
		<path fill="#FFFFFF" d="M56.963,32.285c-0.036-0.982-0.342-2.151-1.288-2.151c-1.205,0-1.799,1.288-1.799,2.615
			c0,1.335,0.798,2.4,2.105,2.419c1.084,0.019,1.798-0.436,2.474-1.168l1.493,1.669c-0.769,1.214-2.493,2.503-4.699,2.503
			c-3.004,0-5.619-1.817-5.619-5.46c0-3.615,2.411-5.228,5.026-5.228c1.39,0,2.206,0.75,2.558,1.158l1.91-1.789l1.011,0.667
			l-1.335,4.765H56.963z"/>
		<path fill="#FFFFFF" d="M59.105,24.424c1.457-0.13,2.531-1.873,2.531-1.873l0.927,0.75c0,0-0.204,0.491-0.473,1.214
			c-0.111,0.306-0.473,1.446-0.528,1.64c-1,3.495,1.947,3.634,2.004,6.767c0.018,1.084-0.437,3.439-1.994,4.589
			c1.315,0.39,3.783,0.677,6.702,0.473c1.872-0.138,4.82-1.446,5.58-3.161c0.993-2.216,0.491-4.941,0.491-4.941l-2.456,0.038
			c0,0,0.222,2.16-0.715,2.215c-1.741,0.092-0.519-2.327-1.64-4.635c-0.621-1.289-1.919-2.41-4.32-3.282
			c1.353,0.187,4.181-1.13,5.089-3.375c0.538-1.344,0.353-3.05,0.019-4.487c-0.704-3.002-3.161-5.395-10.828-5.154
			c-0.472,1.225,0.222,3.013,0.222,3.013l-0.584,0.807C59.132,15.024,59.115,24.238,59.105,24.424z"/>
		<path fill="#FFFFFF" d="M56.963,14.403c0.354-1.27,0.835-3.217,0.835-3.217l-4.051,0.019l-4.061-0.019
			c0,0,0.279,14.86,0.269,14.981c3.348-2.299,6.991-0.899,6.991-0.899l0.621-10.226C57.565,15.042,57.382,14.653,56.963,14.403z"/>
	</g>
</g>
</svg>
