<?xml version="1.0" encoding="utf-8"?>
<!-- Generator: Adobe Illustrator 16.0.0, SVG Export Plug-In . SVG Version: 6.00 Build 0)  -->
<!DOCTYPE svg PUBLIC "-//W3C//DTD SVG 1.1//EN" "http://www.w3.org/Graphics/SVG/1.1/DTD/svg11.dtd">
<svg version="1.1" id="Layer_1" xmlns="http://www.w3.org/2000/svg" xmlns:xlink="http://www.w3.org/1999/xlink" x="0px" y="0px"
	 width="40px" height="40px" viewBox="0 0 40 40" enable-background="new 0 0 40 40" xml:space="preserve">
<g>
	<path fill="#FFFFFF" d="M20,0c11.05,0,20,8.95,20,20s-8.95,20-20,20S0,31.05,0,20S8.95,0,20,0z M27.79,25.779L28.67,20h-5.55v-3.75
		c0-1.58,0.78-3.13,3.26-3.13h2.53V8.2c0,0-2.29-0.39-4.48-0.39c-4.57,0-7.55,2.77-7.55,7.78V20H11.8v5.779h5.08v13.98
		C17.891,39.92,18.939,40,20,40s2.109-0.08,3.12-0.24v-13.98H27.79z"/>
</g>
</svg>
