<?xml version="1.0" encoding="utf-8"?>
<!-- Generator: Adobe Illustrator 16.0.0, SVG Export Plug-In . SVG Version: 6.00 Build 0)  -->
<!DOCTYPE svg PUBLIC "-//W3C//DTD SVG 1.1//EN" "http://www.w3.org/Graphics/SVG/1.1/DTD/svg11.dtd">
<svg version="1.1" id="Layer_1" xmlns="http://www.w3.org/2000/svg" xmlns:xlink="http://www.w3.org/1999/xlink" x="0px" y="0px"
	 width="40px" height="40px" viewBox="0 0 40 40" enable-background="new 0 0 40 40" xml:space="preserve">
<g>
	<path fill-rule="evenodd" clip-rule="evenodd" fill="#FFFFFF" d="M20,3.6c5.34,0,5.971,0.02,8.08,0.12
		c1.949,0.09,3.01,0.41,3.72,0.69c0.931,0.36,1.601,0.8,2.3,1.49c0.69,0.7,1.131,1.37,1.49,2.3c0.28,0.71,0.6,1.77,0.689,3.72
		C36.38,14.03,36.4,14.66,36.4,20s-0.021,5.971-0.121,8.08c-0.09,1.949-0.409,3.01-0.689,3.72c-0.359,0.931-0.8,1.601-1.49,2.3
		c-0.699,0.69-1.369,1.131-2.3,1.49c-0.71,0.27-1.771,0.6-3.72,0.689C25.971,36.38,25.34,36.4,20,36.4s-5.971-0.021-8.08-0.121
		c-1.949-0.09-3.01-0.42-3.72-0.689c-0.931-0.359-1.591-0.8-2.3-1.49C5.2,33.4,4.77,32.73,4.41,31.8
		c-0.28-0.71-0.6-1.771-0.689-3.72C3.62,25.971,3.6,25.34,3.6,20s0.021-5.97,0.121-8.08C3.811,9.97,4.13,8.91,4.41,8.2
		C4.77,7.27,5.2,6.6,5.9,5.9C6.609,5.21,7.27,4.77,8.2,4.41c0.71-0.28,1.771-0.6,3.72-0.69C14.029,3.62,14.66,3.6,20,3.6z M20,0
		c-5.43,0-6.109,0.02-8.24,0.12C9.62,0.22,8.17,0.55,6.9,1.05c-1.32,0.51-2.43,1.2-3.541,2.31C2.24,4.47,1.561,5.58,1.05,6.9
		c-0.5,1.27-0.829,2.73-0.93,4.85C0.02,13.89,0,14.57,0,20c0,5.43,0.02,6.109,0.12,8.25c0.101,2.12,0.43,3.58,0.93,4.85
		c0.511,1.32,1.19,2.43,2.31,3.541C4.471,37.75,5.58,38.439,6.9,38.95c1.27,0.489,2.72,0.829,4.859,0.93
		C13.891,39.98,14.57,40,20,40s6.109-0.02,8.25-0.12c2.12-0.101,3.58-0.44,4.85-0.93c1.32-0.511,2.43-1.2,3.541-2.31
		c1.119-1.111,1.799-2.221,2.31-3.541c0.5-1.27,0.829-2.729,0.93-4.85C39.98,26.109,40,25.43,40,20c0-5.43-0.02-6.11-0.12-8.25
		c-0.101-2.12-0.43-3.58-0.93-4.85c-0.511-1.32-1.19-2.43-2.31-3.54c-1.111-1.11-2.221-1.8-3.541-2.31
		c-1.27-0.5-2.729-0.83-4.85-0.93C26.109,0.02,25.43,0,20,0z"/>
	<path fill-rule="evenodd" clip-rule="evenodd" fill="#FFFFFF" d="M20,9.73c-5.67,0-10.27,4.6-10.27,10.27S14.33,30.27,20,30.27
		S30.27,25.67,30.27,20S25.67,9.73,20,9.73z M20,26.67c-3.68,0-6.67-2.99-6.67-6.67c0-3.68,2.99-6.67,6.67-6.67s6.67,2.99,6.67,6.67
		C26.67,23.68,23.68,26.67,20,26.67z"/>
	<path fill="#FFFFFF" d="M33.08,9.32c0,1.33-1.08,2.4-2.4,2.4c-1.33,0-2.4-1.07-2.4-2.4c0-1.32,1.07-2.4,2.4-2.4
		C32,6.92,33.08,8,33.08,9.32z"/>
</g>
</svg>
