<?xml version="1.0" encoding="utf-8"?>
<!-- Generator: Adobe Illustrator 16.0.0, SVG Export Plug-In . SVG Version: 6.00 Build 0)  -->
<!DOCTYPE svg PUBLIC "-//W3C//DTD SVG 1.1//EN" "http://www.w3.org/Graphics/SVG/1.1/DTD/svg11.dtd">
<svg version="1.1" id="Layer_1" xmlns="http://www.w3.org/2000/svg" xmlns:xlink="http://www.w3.org/1999/xlink" x="0px" y="0px"
	 width="40px" height="40px" viewBox="0 0 40 40" enable-background="new 0 0 40 40" xml:space="preserve">
<g>
	<path fill="#FFFFFF" d="M0.752,20.508c-0.015-0.1-0.086-0.168-0.172-0.168c-0.089,0-0.161,0.07-0.173,0.168L0,24.227l0.407,3.638
		c0.012,0.098,0.084,0.168,0.173,0.168c0.086,0,0.157-0.068,0.171-0.167l0.464-3.639L0.752,20.508z"/>
	<path fill="#FFFFFF" d="M7.168,17.076c-0.167,0-0.305,0.136-0.312,0.311L6.531,24.23l0.324,4.423
		c0.008,0.173,0.146,0.31,0.312,0.31c0.166,0,0.304-0.137,0.314-0.311v0.001l0.366-4.423l-0.366-6.844
		C7.472,17.212,7.334,17.076,7.168,17.076z"/>
	<path fill="#FFFFFF" d="M3.848,19.454c-0.129,0-0.233,0.103-0.243,0.239l-0.365,4.535l0.365,4.387
		c0.01,0.136,0.114,0.238,0.243,0.238c0.127,0,0.23-0.103,0.242-0.238l0.415-4.387L4.09,19.693
		C4.078,19.557,3.975,19.454,3.848,19.454z"/>
	<path fill="#FFFFFF" d="M10.543,28.962c0.207,0,0.376-0.167,0.385-0.381l0.317-4.349l-0.317-9.111
		c-0.009-0.214-0.178-0.382-0.385-0.382c-0.209,0-0.377,0.168-0.385,0.382c0,0.001-0.281,9.111-0.281,9.111l0.281,4.35
		C10.166,28.794,10.334,28.962,10.543,28.962z"/>
	<path fill="#FFFFFF" d="M17.452,28.982c0.285,0,0.52-0.235,0.525-0.523v0.003v-0.003l0.222-4.224l-0.222-10.523
		c-0.005-0.288-0.24-0.523-0.525-0.523c-0.286,0-0.521,0.235-0.525,0.523l-0.198,10.52c0,0.007,0.198,4.23,0.198,4.23
		C16.931,28.747,17.166,28.982,17.452,28.982z"/>
	<path fill="#FFFFFF" d="M13.971,28.966c0.248,0,0.448-0.199,0.455-0.453v0.004l0.271-4.283l-0.271-9.178
		c-0.007-0.254-0.207-0.452-0.455-0.452c-0.25,0-0.449,0.198-0.455,0.452l-0.24,9.178l0.24,4.281
		C13.521,28.767,13.721,28.966,13.971,28.966z"/>
	<path fill="#FFFFFF" d="M5.501,28.926c0.147,0,0.267-0.118,0.278-0.273l0.391-4.424l-0.391-4.208
		c-0.011-0.155-0.13-0.272-0.278-0.272c-0.149,0-0.269,0.117-0.278,0.274l-0.345,4.206l0.345,4.423
		C5.232,28.808,5.352,28.926,5.501,28.926z"/>
	<path fill="#FFFFFF" d="M2.206,28.684c0.108,0,0.195-0.085,0.208-0.203l0.439-4.253l-0.439-4.414
		c-0.013-0.118-0.1-0.203-0.208-0.203s-0.196,0.086-0.207,0.203c0,0.001-0.387,4.414-0.387,4.414l0.387,4.252
		C2.01,28.599,2.098,28.684,2.206,28.684z"/>
	<path fill="#FFFFFF" d="M15.705,14.903c-0.27,0-0.485,0.214-0.491,0.488l-0.219,8.843l0.219,4.254
		c0.006,0.271,0.222,0.485,0.491,0.485c0.269,0,0.483-0.214,0.489-0.488v0.004l0.246-4.255l-0.246-8.844
		C16.188,15.117,15.974,14.903,15.705,14.903z"/>
	<path fill="#FFFFFF" d="M8.85,28.971c0.186,0,0.339-0.151,0.349-0.346l0.342-4.394l-0.342-8.409
		c-0.01-0.194-0.163-0.346-0.349-0.346c-0.188,0-0.342,0.151-0.35,0.346l-0.303,8.409L8.5,28.627
		C8.508,28.819,8.661,28.971,8.85,28.971z"/>
	<path fill="#FFFFFF" d="M12.669,28.557v-0.002l0.295-4.322l-0.295-9.418c-0.006-0.234-0.19-0.417-0.419-0.417
		s-0.413,0.183-0.42,0.417l-0.261,9.418l0.262,4.323c0.006,0.231,0.19,0.415,0.419,0.415s0.411-0.184,0.419-0.416V28.557z"/>
	<path fill="#FFFFFF" d="M34.905,18.804c-0.698,0-1.364,0.142-1.971,0.396c-0.405-4.592-4.256-8.193-8.952-8.193
		c-1.149,0-2.27,0.226-3.259,0.608c-0.385,0.149-0.487,0.303-0.49,0.6v16.17c0.004,0.312,0.245,0.571,0.55,0.602
		c0.013,0.002,14.031,0.009,14.122,0.009c2.813,0,5.095-2.281,5.095-5.096C40,21.085,37.719,18.804,34.905,18.804z"/>
	<path fill="#FFFFFF" d="M19.191,12.199c-0.306,0-0.558,0.252-0.562,0.56L18.4,24.236l0.229,4.165
		c0.004,0.304,0.256,0.556,0.562,0.556s0.557-0.252,0.561-0.56v0.004l0.25-4.165l-0.25-11.478
		C19.748,12.451,19.497,12.199,19.191,12.199z"/>
</g>
</svg>
