<?xml version="1.0" encoding="utf-8"?>
<!-- Generator: Adobe Illustrator 16.0.0, SVG Export Plug-In . SVG Version: 6.00 Build 0)  -->
<!DOCTYPE svg PUBLIC "-//W3C//DTD SVG 1.1//EN" "http://www.w3.org/Graphics/SVG/1.1/DTD/svg11.dtd">
<svg version="1.1" id="Layer_1" xmlns="http://www.w3.org/2000/svg" xmlns:xlink="http://www.w3.org/1999/xlink" x="0px" y="0px"
	 width="40px" height="40px" viewBox="0 0 40 40" enable-background="new 0 0 40 40" xml:space="preserve">
<path fill="#FFFFFF" d="M19.999,39.275c10.641,0,19.276-8.636,19.276-19.276S30.64,0.725,19.999,0.725S0.725,9.358,0.725,19.999
	S9.358,39.275,19.999,39.275z M27.825,29.084v0.002c-1.296,0-5.392-4.542-16.898-2.185c-0.304,0.079-0.701,0.202-0.926,0.202
	c-1.47,0-1.751-2.199-0.171-2.535c6.367-1.406,12.872-1.281,18.421,2.039C29.574,27.451,29.012,29.084,27.825,29.084L27.825,29.084z
	 M29.919,23.987c-0.184-0.047-0.129,0.111-0.96-0.324c-4.859-2.877-12.1-4.037-18.545-2.288c-0.373,0.103-0.575,0.203-0.924,0.203
	c-1.722,0-2.179-2.588-0.303-3.115c7.575-2.13,15.7-0.887,21.359,2.479c0.63,0.371,0.879,0.854,0.879,1.53
	C31.417,23.31,30.765,23.987,29.919,23.987z M8.029,11.965c7.266-2.127,18.26-1.456,25.097,2.535
	c1.753,1.01,1.063,3.565-0.801,3.565l-0.002-0.001c-0.403,0-0.653-0.102-1.001-0.305c-5.532-3.302-15.429-4.094-21.831-2.306
	c-0.281,0.077-0.632,0.2-1.005,0.2c-1.025,0-1.81-0.801-1.81-1.834C6.677,12.765,7.33,12.167,8.029,11.965L8.029,11.965z"/>
</svg>
