<?xml version="1.0" encoding="utf-8"?>
<!-- Generator: Adobe Illustrator 16.0.0, SVG Export Plug-In . SVG Version: 6.00 Build 0)  -->
<!DOCTYPE svg PUBLIC "-//W3C//DTD SVG 1.1//EN" "http://www.w3.org/Graphics/SVG/1.1/DTD/svg11.dtd">
<svg version="1.1" id="Layer_1" xmlns="http://www.w3.org/2000/svg" xmlns:xlink="http://www.w3.org/1999/xlink" x="0px" y="0px"
	 width="40px" height="40px" viewBox="0 0 40 40" enable-background="new 0 0 40 40" xml:space="preserve">
<g>
	<path fill="#FFFFFF" d="M12.68,35.885c14.84,0,22.94-12.23,22.94-22.82c0-0.35,0-0.7-0.01-1.03c1.569-1.14,2.939-2.55,4.029-4.16
		c-1.439,0.63-3,1.06-4.641,1.26c1.681-1,2.951-2.56,3.551-4.44c-1.561,0.91-3.28,1.58-5.12,1.95c-1.47-1.57-3.56-2.53-5.88-2.53
		c-4.45,0-8.061,3.59-8.061,8.02c0,0.63,0.061,1.24,0.221,1.82c-6.711-0.33-12.65-3.52-16.631-8.38c-0.689,1.18-1.08,2.56-1.08,4.03
		c0,2.77,1.421,5.24,3.591,6.67c-1.32-0.04-2.56-0.4-3.649-1v0.1c0,3.89,2.779,7.12,6.479,7.87c-0.671,0.18-1.39,0.281-2.13,0.281
		c-0.51,0-1.021-0.051-1.521-0.15c1.021,3.189,4,5.5,7.53,5.57c-2.76,2.148-6.24,3.43-10.02,3.43c-0.65,0-1.291-0.041-1.92-0.121
		C3.88,34.555,8.13,35.885,12.68,35.885z"/>
</g>
</svg>
