<?xml version="1.0" encoding="utf-8"?>
<!-- Generator: Adobe Illustrator 16.0.0, SVG Export Plug-In . SVG Version: 6.00 Build 0)  -->
<!DOCTYPE svg PUBLIC "-//W3C//DTD SVG 1.1//EN" "http://www.w3.org/Graphics/SVG/1.1/DTD/svg11.dtd">
<svg version="1.1" id="Layer_1" xmlns="http://www.w3.org/2000/svg" xmlns:xlink="http://www.w3.org/1999/xlink" x="0px" y="0px"
	 width="40px" height="40px" viewBox="0 0 40 40" enable-background="new 0 0 40 40" xml:space="preserve">
<g>
	<path fill="#FFFFFF" d="M37.648,32.458l-7.166-7.171l5.112-2.953c0.398-0.231,0.631-0.671,0.598-1.13
		c-0.033-0.462-0.325-0.863-0.755-1.033l-22.792-9.098c-0.448-0.179-0.958-0.074-1.298,0.267c-0.34,0.34-0.446,0.851-0.267,1.298
		l9.091,22.809c0.17,0.43,0.571,0.725,1.032,0.758c0.459,0.032,0.898-0.2,1.13-0.6l2.952-5.115l7.164,7.169
		c0.226,0.227,0.531,0.354,0.852,0.354c0.318,0,0.625-0.127,0.851-0.354l3.497-3.498C38.117,33.689,38.117,32.927,37.648,32.458z"/>
	<path fill="#FFFFFF" d="M7.285,5.572c-0.47-0.47-1.233-0.47-1.702,0c-0.47,0.471-0.47,1.233,0,1.704l2.675,2.677
		c0.235,0.235,0.544,0.353,0.851,0.353c0.309,0,0.617-0.118,0.851-0.353c0.471-0.47,0.471-1.233,0-1.704L7.285,5.572z"/>
	<path fill="#FFFFFF" d="M8.192,13.901c0-0.665-0.539-1.205-1.204-1.205H3.203C2.54,12.696,2,13.235,2,13.901
		c0,0.665,0.54,1.205,1.203,1.205h3.785C7.653,15.106,8.192,14.566,8.192,13.901z"/>
	<path fill="#FFFFFF" d="M7.704,17.619l-2.675,2.677c-0.47,0.471-0.47,1.233,0,1.704c0.234,0.236,0.543,0.352,0.85,0.352
		c0.31,0,0.617-0.115,0.853-0.352l2.676-2.677c0.47-0.471,0.47-1.233,0-1.704C8.936,17.148,8.174,17.148,7.704,17.619z"/>
	<path fill="#FFFFFF" d="M13.906,8.183c0.665,0,1.204-0.539,1.204-1.205V3.192c0-0.666-0.538-1.205-1.204-1.205
		c-0.665,0-1.205,0.54-1.205,1.205v3.786C12.701,7.644,13.24,8.183,13.906,8.183z"/>
	<path fill="#FFFFFF" d="M18.473,9.751c0.308,0,0.616-0.117,0.851-0.353l2.676-2.676c0.47-0.47,0.47-1.234,0-1.705
		c-0.471-0.47-1.232-0.47-1.703,0l-2.676,2.677c-0.47,0.47-0.47,1.233,0,1.704C17.856,9.634,18.164,9.751,18.473,9.751z"/>
</g>
</svg>
