<?xml version="1.0" encoding="utf-8"?>
<!-- Generator: Adobe Illustrator 16.0.0, SVG Export Plug-In . SVG Version: 6.00 Build 0)  -->
<!DOCTYPE svg PUBLIC "-//W3C//DTD SVG 1.1//EN" "http://www.w3.org/Graphics/SVG/1.1/DTD/svg11.dtd">
<svg version="1.1" id="Layer_1" xmlns="http://www.w3.org/2000/svg" xmlns:xlink="http://www.w3.org/1999/xlink" x="0px" y="0px"
	 width="40px" height="40px" viewBox="0 0 40 40" enable-background="new 0 0 40 40" xml:space="preserve">
<g>
	<path fill-rule="evenodd" clip-rule="evenodd" fill="#FFFFFF" d="M15.614,26.365v-12.73l11.19,6.36L15.614,26.365z M40.505,9.625
		c-0.49-1.85-1.94-3.31-3.78-3.8c-3.34-0.9-16.729-0.9-16.729-0.9s-13.391,0-16.721,0.9c-1.85,0.49-3.3,1.95-3.79,3.8
		c-0.89,3.36-0.89,10.37-0.89,10.37s0,7.01,0.89,10.37c0.49,1.859,1.94,3.311,3.79,3.811c3.33,0.898,16.721,0.898,16.721,0.898
		s13.39,0,16.729-0.898c1.84-0.5,3.29-1.951,3.78-3.811c0.9-3.359,0.9-10.37,0.9-10.37S41.405,12.985,40.505,9.625z"/>
</g>
</svg>
